<?xml version="1.0" encoding="UTF-8" standalone="no"?>
<!-- Created with Inkscape (http://www.inkscape.org/) -->
<svg
   xmlns:dc="http://purl.org/dc/elements/1.1/"
   xmlns:cc="http://creativecommons.org/ns#"
   xmlns:rdf="http://www.w3.org/1999/02/22-rdf-syntax-ns#"
   xmlns:svg="http://www.w3.org/2000/svg"
   xmlns="http://www.w3.org/2000/svg"
   xmlns:xlink="http://www.w3.org/1999/xlink"
   xmlns:sodipodi="http://sodipodi.sourceforge.net/DTD/sodipodi-0.dtd"
   xmlns:inkscape="http://www.inkscape.org/namespaces/inkscape"
   id="svg2383"
   sodipodi:version="0.32"
   inkscape:version="0.46"
   width="800"
   height="374"
   xml:space="preserve"
   sodipodi:docname="vienna_notation.svg"
   inkscape:output_extension="org.inkscape.output.svg.inkscape"
   inkscape:export-filename="/home/bienert/projects/corb.documentation.git/share/doc/vienna_notation.png"
   inkscape:export-xdpi="90"
   inkscape:export-ydpi="90"
   version="1.0"><sodipodi:namedview
     inkscape:window-height="973"
     inkscape:window-width="1272"
     inkscape:pageshadow="2"
     inkscape:pageopacity="0.0"
     guidetolerance="10.0"
     gridtolerance="10.0"
     objecttolerance="10.0"
     borderopacity="1.0"
     bordercolor="#666666"
     pagecolor="#ffffff"
     id="base"
     showgrid="false"
     inkscape:zoom="1"
     inkscape:cx="404.14101"
     inkscape:cy="213.414"
     inkscape:window-x="0"
     inkscape:window-y="25"
     inkscape:current-layer="svg2383" /><metadata
     id="metadata2388"><rdf:RDF><cc:Work
         rdf:about=""><dc:format>image/svg+xml</dc:format><dc:type
           rdf:resource="http://purl.org/dc/dcmitype/StillImage" /></cc:Work></rdf:RDF></metadata><defs
     id="defs2386"><linearGradient
   inkscape:collect="always"
   id="linearGradient5040"><stop
     style="stop-color:#ff9400;stop-opacity:1;"
     offset="0"
     id="stop5042" /><stop
     style="stop-color:#ff9400;stop-opacity:0;"
     offset="1"
     id="stop5044" /></linearGradient><linearGradient
   inkscape:collect="always"
   id="linearGradient5032"><stop
     style="stop-color:#ff9400;stop-opacity:1;"
     offset="0"
     id="stop5034" /><stop
     style="stop-color:#ff9400;stop-opacity:0;"
     offset="1"
     id="stop5036" /></linearGradient><linearGradient
   inkscape:collect="always"
   id="linearGradient5024"><stop
     style="stop-color:#ff9400;stop-opacity:1;"
     offset="0"
     id="stop5026" /><stop
     style="stop-color:#ff9400;stop-opacity:0;"
     offset="1"
     id="stop5028" /></linearGradient><linearGradient
   inkscape:collect="always"
   id="linearGradient5004"><stop
     style="stop-color:#ff9400;stop-opacity:1;"
     offset="0"
     id="stop5006" /><stop
     style="stop-color:#ff9400;stop-opacity:0;"
     offset="1"
     id="stop5008" /></linearGradient><linearGradient
   inkscape:collect="always"
   id="linearGradient4980"><stop
     style="stop-color:#ff9400;stop-opacity:1;"
     offset="0"
     id="stop4982" /><stop
     style="stop-color:#ff9400;stop-opacity:0;"
     offset="1"
     id="stop4984" /></linearGradient><linearGradient
   inkscape:collect="always"
   id="linearGradient4968"><stop
     style="stop-color:#ff9400;stop-opacity:1;"
     offset="0"
     id="stop4970" /><stop
     style="stop-color:#ff9400;stop-opacity:0;"
     offset="1"
     id="stop4972" /></linearGradient><linearGradient
   inkscape:collect="always"
   id="linearGradient4956"><stop
     style="stop-color:#ff9400;stop-opacity:1;"
     offset="0"
     id="stop4958" /><stop
     style="stop-color:#ff9400;stop-opacity:0;"
     offset="1"
     id="stop4960" /></linearGradient><linearGradient
   inkscape:collect="always"
   id="linearGradient4820"><stop
     style="stop-color:#ff9400;stop-opacity:1;"
     offset="0"
     id="stop4822" /><stop
     style="stop-color:#ff9400;stop-opacity:0;"
     offset="1"
     id="stop4824" /></linearGradient><linearGradient
   inkscape:collect="always"
   id="linearGradient4782"><stop
     style="stop-color:#ff9400;stop-opacity:1;"
     offset="0"
     id="stop4784" /><stop
     style="stop-color:#ff9400;stop-opacity:0;"
     offset="1"
     id="stop4786" /></linearGradient><inkscape:perspective
   sodipodi:type="inkscape:persp3d"
   inkscape:vp_x="0 : 526.18109 : 1"
   inkscape:vp_y="0 : 1000 : 0"
   inkscape:vp_z="744.09448 : 526.18109 : 1"
   inkscape:persp3d-origin="372.04724 : 350.78739 : 1"
   id="perspective2390" />






























































































































<linearGradient
   inkscape:collect="always"
   xlink:href="#linearGradient4782"
   id="linearGradient4828"
   gradientUnits="userSpaceOnUse"
   x1="384.31253"
   y1="68.36692"
   x2="453.25543"
   y2="78.973518" /><linearGradient
   inkscape:collect="always"
   xlink:href="#linearGradient4820"
   id="linearGradient4950"
   gradientUnits="userSpaceOnUse"
   gradientTransform="translate(2.1372995e-6,1.12e-5)"
   x1="421.50455"
   y1="62.710068"
   x2="472.98553"
   y2="92.762108" /><linearGradient
   inkscape:collect="always"
   xlink:href="#linearGradient4956"
   id="linearGradient4962"
   x1="355.80145"
   y1="68.543694"
   x2="390.1962"
   y2="99.826324"
   gradientUnits="userSpaceOnUse" /><linearGradient
   inkscape:collect="always"
   xlink:href="#linearGradient4968"
   id="linearGradient4974"
   x1="510.00665"
   y1="142.92769"
   x2="622.85205"
   y2="217.17392"
   gradientUnits="userSpaceOnUse" /><linearGradient
   inkscape:collect="always"
   xlink:href="#linearGradient4980"
   id="linearGradient4986"
   x1="498.30255"
   y1="136.07246"
   x2="580.74243"
   y2="185.92349"
   gradientUnits="userSpaceOnUse" /><linearGradient
   inkscape:collect="always"
   xlink:href="#linearGradient5004"
   id="linearGradient5010"
   x1="539.61597"
   y1="158.25371"
   x2="602.46692"
   y2="203.25371"
   gradientUnits="userSpaceOnUse" /><linearGradient
   inkscape:collect="always"
   xlink:href="#linearGradient5024"
   id="linearGradient5030"
   x1="256.13913"
   y1="235.21754"
   x2="396.94519"
   y2="128.71754"
   gradientUnits="userSpaceOnUse" /><linearGradient
   inkscape:collect="always"
   xlink:href="#linearGradient5032"
   id="linearGradient5038"
   x1="261.97305"
   y1="195.1936"
   x2="397.04068"
   y2="121.1936"
   gradientUnits="userSpaceOnUse" /><linearGradient
   inkscape:collect="always"
   xlink:href="#linearGradient5040"
   id="linearGradient5046"
   x1="261.1926"
   y1="151.11755"
   x2="390.37689"
   y2="96.617554"
   gradientUnits="userSpaceOnUse" /></defs><g
     id="g2392"
     inkscape:groupmode="layer"
     inkscape:label="mfe-vs-probability-pdf"
     transform="matrix(1.25,0,0,-1.25,0,400)"><g
   transform="matrix(1,0,0,-1,-110.8102,262.29565)"
   id="g2436" /><g
   transform="matrix(1,0,0,-1,14.469565,336.69565)"
   id="g2544" /><g
   transform="matrix(1,0,0,-0.367794,-95.930435,535.09565)"
   id="g2570" /><g
   transform="matrix(1,0,0,-1,14.469565,336.69565)"
   id="g2574" /><g
   transform="matrix(1,0,0,-1,-172.45257,327.27709)"
   id="g2502" /><g
   transform="matrix(1,0,0,-1,-173.62142,346.79637)"
   id="g2852" /><g
   transform="matrix(1,0,0,-1,-164.3846,363.4584)"
   id="g2977" /><g
   transform="matrix(1,0,0,-1,-144.1358,369.748)"
   id="g2987" /><g
   transform="matrix(1,0,0,-1,-125.19251,363.24647)"
   id="g2997" /><g
   transform="matrix(1,0,0,-1,-113.41282,347.47974)"
   id="g3007" /><g
   transform="matrix(1,0,0,-1,-115.01282,325.91388)"
   id="g3017" /><g
   transform="matrix(1,0,0,-1,-181.8374,400.126)"
   id="g3350" /><g
   transform="matrix(1,0,0,-1,-121.6774,419.7258)"
   id="g4786" /><g
   transform="matrix(1,0,0,-1,-121.7574,445.326)"
   id="g4796" /><g
   transform="matrix(1,0,0,-1,-137.5975,463.5658)"
   id="g4806" /><g
   transform="matrix(1,0,0,-1,-162.7975,467.0058)"
   id="g4816" /><g
   transform="matrix(1,0,0,-1,-183.6774,453.726)"
   id="g4826" /><g
   transform="matrix(1,0,0,-1,-188.8774,426.926)"
   id="g4836" />

















































































</g><svg
     version="1.0"
     baseProfile="full"
     id="body"
     width="8in"
     height="8in"
     viewBox="0 0 1 1"
     preserveAspectRatio="none"
     sodipodi:version="0.32"
     inkscape:version="0.46" /><svg
     preserveAspectRatio="none"
     viewBox="0 0 1 1"
     height="8in"
     width="8in"
     id="svg5187"
     baseProfile="full"
     version="1.0"
     sodipodi:version="0.32"
     inkscape:version="0.46" /><svg
     version="1.0"
     baseProfile="full"
     id="svg5489"
     width="8in"
     height="8in"
     viewBox="0 0 1 1"
     preserveAspectRatio="none"
     sodipodi:version="0.32"
     inkscape:version="0.46" /><g
     id="g3373"
     transform="translate(0,-14)"><g
       id="g2396"
       transform="matrix(1.5493549,0,0,1.5493549,220.86679,-71.821552)"><path
         d="M 119.355,278.789 C 123.719,279.691 130.816,281.074 122.156,280.996 C 119.012,280.965 110.594,282.695 107.531,281.973 C 104.469,281.254 105.191,279.508 108.254,278.789 C 111.32,278.066 118.691,278.066 121.758,278.789"
         style="fill:#3ebd00;fill-opacity:1;fill-rule:evenodd;stroke:#98fc66;stroke-width:1.61357486;stroke-linecap:round;stroke-linejoin:round;stroke-miterlimit:4;stroke-dasharray:none;stroke-opacity:1"
         id="path2398" /></g><g
       id="g2400"
       transform="matrix(1.5493549,0,0,0.5698434,220.86679,-71.821552)"><path
         d="M 120.395,508.554 C 123.074,513.047 123.457,513.695 120.395,515.649 C 117.328,517.603 112.355,517.603 109.293,515.649 C 106.227,513.695 106.734,513.546 109.293,508.554 C 113.512,500.323 117.941,504.444 120.395,508.554 z"
         style="fill:#3ebd00;fill-opacity:1;fill-rule:evenodd;stroke:#98fc66;stroke-width:2.66064525;stroke-linecap:round;stroke-linejoin:round;stroke-miterlimit:4;stroke-dasharray:none;stroke-opacity:1"
         id="path2402" /></g><g
       id="g2404"
       transform="matrix(1.5493549,0,0,1.0597108,220.86679,-71.821552)"><path
         d="M 118.207,326.518 C 119.855,327.569 119.547,330.333 117.898,331.384 C 116.25,332.44 113.574,332.44 111.926,331.384 C 110.281,330.333 110.281,328.625 111.926,327.574 C 113.574,326.524 116.562,325.461 118.207,326.518 z"
         style="fill:#3ebd00;fill-opacity:1;fill-rule:evenodd;stroke:#98fc66;stroke-width:1.95106125;stroke-linecap:round;stroke-linejoin:round;stroke-miterlimit:4;stroke-dasharray:none;stroke-opacity:1"
         id="path2406" /></g><g
       id="g2408"
       transform="matrix(1.5493549,0,0,0.6583798,220.86679,-71.821552)"><path
         d="M 119.863,482.699 C 122.516,484.39 122.609,487.378 119.863,488.84 C 116.504,490.623 112.254,491 110.258,488.84 C 107.68,486.045 107.875,484.179 110.527,482.488 C 113.18,480.796 117.211,481.008 119.863,482.699"
         style="fill:#3ebd00;fill-opacity:1;fill-rule:evenodd;stroke:#98fc66;stroke-width:2.47529149;stroke-linecap:round;stroke-linejoin:round;stroke-miterlimit:4;stroke-dasharray:none;stroke-opacity:1"
         id="path2410" /></g><g
       id="g2562"
       transform="matrix(1.5493549,0,0,1.5493549,222.86679,-71.821552)"><path
         d="M 117.449,166.988 C 121.809,167.895 128.906,169.277 120.25,169.195 C 117.102,169.168 108.688,170.895 105.625,170.176 C 102.559,169.457 103.285,167.707 106.348,166.988 C 109.41,166.27 116.785,166.27 119.852,166.988"
         style="fill:#3ebd00;fill-opacity:1;fill-rule:evenodd;stroke:#98fc66;stroke-width:1.61357486;stroke-linecap:round;stroke-linejoin:round;stroke-miterlimit:4;stroke-dasharray:none;stroke-opacity:1"
         id="path2564" /></g><g
       id="g2450"
       transform="matrix(1.5493549,0,0,1.5493549,220.86679,-71.821552)"><path
         id="path2452"
         transform="matrix(0.8,0,0,0.8,-14.469565,16.69565)"
         d="M 161.84375,110.375 C 159.26529,110.375 156.99061,111.68333 155.625,113.65625 C 155.62153,113.66127 155.59721,113.65122 155.59375,113.65625 C 150.20122,114.51406 145.05787,116.50333 140.4375,119.34375 C 139.29405,118.64845 137.96598,118.25 136.53125,118.25 C 132.35625,118.25 128.96876,121.63375 128.96875,125.8125 C 128.96875,126.84577 129.18682,127.82125 129.5625,128.71875 C 126.84338,131.93805 124.55181,135.53192 122.84375,139.375 C 119.7019,140.29402 117.40625,143.21571 117.40625,146.65625 C 117.40625,148.67447 118.21021,150.48698 119.5,151.84375 C 119.33746,153.47648 119.26205,155.11903 119.3125,156.78125 C 119.31786,159.9802 119.73478,163.22073 120.46875,166.40625 C 119.4728,167.68774 118.875,169.28276 118.875,171.03125 C 118.875,174.77077 121.58901,177.86091 125.15625,178.46875 C 127.47198,182.52918 130.41717,186.20469 133.96875,189.15625 C 133.85449,189.67866 133.78125,190.22474 133.78125,190.78125 C 133.78125,193.61376 135.3575,196.075 137.65625,197.375 C 138.2575,200.74875 138.8075,204.11375 139.28125,207.46875 C 137.24,208.82125 135.875,211.11875 135.875,213.75 C 135.87499,217.02126 137.96375,219.78875 140.875,220.84375 C 141.18749,224.05126 141.4675,227.23875 141.6875,230.4375 C 139.64125,231.79 138.28125,234.0875 138.28125,236.71875 C 138.28125,239.62376 139.9425,242.13625 142.34375,243.40625 C 142.46125,246.8725 142.53875,250.32875 142.5625,253.78125 C 140.81,255.1625 139.6875,257.31125 139.6875,259.71875 C 139.6875,262.09625 140.78125,264.20625 142.5,265.59375 C 142.4375,269.21125 142.33,272.82875 142.1875,276.4375 C 140.19625,277.79875 138.875,280.08875 138.875,282.6875 C 138.875,285.01625 139.93375,287.07625 141.59375,288.46875 C 141.37875,292.11625 141.13875,295.7625 140.875,299.40625 C 138.88249,300.7675 137.59375,303.0575 137.59375,305.65625 C 137.59374,307.82375 138.49875,309.775 139.96875,311.15625 C 139.68125,314.57376 139.375,317.99375 139.0625,321.40625 C 136.00125,322.37376 133.78125,325.24125 133.78125,328.625 C 133.78125,331.49125 135.39125,333.99625 137.75,335.28125 C 137.34374,339.54375 136.96375,343.82625 136.5625,348.09375 L 144.5625,348.09375 C 144.71375,343.5275 144.98625,339.2025 145.3125,335.0625 C 147.46625,333.73001 148.90625,331.33875 148.90625,328.625 C 148.90625,326.44125 147.97875,324.475 146.5,323.09375 C 146.89499,319.5875 147.315,316.16875 147.75,312.75 C 150.64499,311.69126 152.71875,308.9175 152.71875,305.65625 C 152.71875,303.0575 151.39875,300.7675 149.40625,299.40625 C 149.79125,296.03625 150.15625,292.6075 150.46875,289.0625 C 152.58875,287.72001 154,285.3725 154,282.6875 C 153.99999,280.3675 152.95875,278.2925 151.3125,276.90625 C 151.48375,273.385 151.59625,269.72375 151.625,265.875 C 153.55375,264.50876 154.8125,262.2625 154.8125,259.71875 C 154.8125,257.10625 153.48125,254.8 151.46875,253.4375 C 151.35125,249.91251 151.165,246.20125 150.90625,242.34375 C 152.44,240.96251 153.40625,238.945 153.40625,236.71875 C 153.40625,234.03376 151.98375,231.7175 149.875,230.375 C 149.52375,226.82001 149.125,223.06625 148.65625,219.21875 C 150.10125,217.84251 151,215.90375 151,213.75 C 151,210.87001 149.3725,208.3725 147,207.09375 C 146.53125,203.86126 146.04125,200.51125 145.5,197.09375 C 147.545,195.74126 148.90625,193.41875 148.90625,190.78125 C 148.90625,186.60626 145.5175,183.21875 141.34375,183.21875 C 140.70734,183.21875 140.09065,183.32049 139.5,183.46875 C 136.71968,181.17117 134.4221,178.45955 132.59375,175.46875 C 133.48955,174.22586 134,172.67917 134,171.03125 C 134,167.40951 131.45843,164.39923 128.0625,163.65625 C 127.43702,160.41004 127.25885,157.07879 127.5,153.78125 C 130.42965,152.73862 132.53125,149.94273 132.53125,146.65625 C 132.53125,144.69339 131.78804,142.87616 130.5625,141.53125 C 131.90266,138.58067 133.6786,135.81123 135.875,133.34375 C 136.08954,133.36206 136.312,133.375 136.53125,133.375 C 140.52791,133.375 143.79164,130.27324 144.0625,126.34375 C 147.5504,124.1752 151.40928,122.69632 155.40625,121.90625 C 156.73786,124.06923 159.11926,125.5 161.84375,125.5 C 164.66333,125.5 167.10591,123.97819 168.40625,121.6875 C 171.75541,122.21127 175.01899,123.18416 178.09375,124.59375 C 177.99693,125.07692 177.9375,125.58212 177.9375,126.09375 C 177.9375,130.26875 181.32501,133.65626 185.5,133.65625 C 186.81964,133.65625 188.07586,133.28277 189.15625,132.6875 C 190.18292,133.84108 191.13755,135.0843 192,136.40625 C 193.00162,137.77874 193.90169,139.20338 194.65625,140.6875 C 194.66037,140.6956 194.65214,140.71064 194.65625,140.71875 C 193.43567,142.06259 192.6875,143.82297 192.6875,145.78125 C 192.6875,149.2187 194.98314,152.11233 198.125,153.03125 C 198.48559,157.13343 198.12683,161.28454 197.125,165.28125 C 193.48086,165.82343 190.6875,168.95242 190.6875,172.75 C 190.6875,174.30028 191.13626,175.73729 191.9375,176.9375 C 190.09453,179.66221 187.89123,182.13755 185.3125,184.21875 C 184.4501,183.8765 183.515,183.6875 182.53125,183.6875 C 178.3575,183.6875 174.96875,187.07501 174.96875,191.25 C 174.96875,193.8875 176.33,196.21001 178.375,197.5625 C 177.82875,200.98 177.33874,204.33001 176.875,207.5625 C 174.5025,208.84125 172.875,211.33876 172.875,214.21875 C 172.875,216.3725 173.77875,218.31126 175.21875,219.6875 C 174.755,223.535 174.3475,227.28876 174,230.84375 C 171.89125,232.18625 170.46874,234.50251 170.46875,237.1875 C 170.46875,239.41375 171.43624,241.43126 172.96875,242.8125 C 172.71,246.67 172.52875,250.38126 172.40625,253.90625 C 170.395,255.26875 169.06249,257.575 169.0625,260.1875 C 169.0625,262.73125 170.32125,264.97751 172.25,266.34375 C 172.28375,270.1925 172.39625,273.85375 172.5625,277.375 C 170.92125,278.76125 169.875,280.83625 169.875,283.15625 C 169.875,285.84125 171.29125,288.18876 173.40625,289.53125 C 173.72375,293.07625 174.07875,296.505 174.46875,299.875 C 172.4775,301.23625 171.15625,303.52625 171.15625,306.125 C 171.15625,309.38625 173.22875,312.16001 176.125,313.21875 C 176.55375,316.6375 176.97875,320.05625 177.375,323.5625 C 175.895,324.94375 174.96875,326.91 174.96875,329.09375 C 174.96875,331.8075 176.41375,334.19876 178.5625,335.53125 C 178.89375,339.6725 179.15625,343.99625 179.3125,348.5625 L 187.3125,348.5625 C 186.91625,344.295 186.53,340.0125 186.125,335.75 C 188.4825,334.465 190.09375,331.96 190.09375,329.09375 C 190.09375,325.71 187.87875,322.84251 184.8125,321.875 C 184.505,318.4625 184.18999,315.04251 183.90625,311.625 C 185.37125,310.24375 186.28125,308.2925 186.28125,306.125 C 186.28125,303.52625 184.99125,301.23625 183,299.875 C 182.73625,296.2325 182.49125,292.585 182.28125,288.9375 C 183.94125,287.545 184.99999,285.485 185,283.15625 C 185,280.5575 183.67875,278.2675 181.6875,276.90625 C 181.545,273.2975 181.4425,269.68 181.375,266.0625 C 183.09875,264.675 184.1875,262.565 184.1875,260.1875 C 184.1875,257.78 183.065,255.63125 181.3125,254.25 C 181.34125,250.7975 181.41375,247.34125 181.53125,243.875 C 183.93875,242.605 185.59375,240.09251 185.59375,237.1875 C 185.59375,234.55625 184.22874,232.25875 182.1875,230.90625 C 182.4075,227.7075 182.6825,224.52001 183,221.3125 C 185.91,220.2575 188,217.49001 188,214.21875 C 188,211.5875 186.64,209.29 184.59375,207.9375 C 185.0725,204.5825 185.6225,201.2175 186.21875,197.84375 C 188.5225,196.545 190.09375,194.08251 190.09375,191.25 C 190.09375,191.02032 190.08258,190.78698 190.0625,190.5625 C 193.78885,187.66517 196.90793,184.1366 199.375,180.21875 C 203.00333,179.66366 205.81249,176.5336 205.8125,172.75 C 205.8125,171.18297 205.31578,169.7078 204.5,168.5 C 206.09595,162.76005 206.59612,156.71721 205.875,150.8125 C 207.06906,149.47497 207.8125,147.71391 207.8125,145.78125 C 207.8125,142.39615 205.56342,139.5293 202.5,138.5625 C 202.49827,138.55868 202.47049,138.56632 202.46875,138.5625 C 201.25516,135.89289 199.76415,133.34404 197.9375,130.96875 C 196.47434,128.93848 194.82704,127.07038 193.03125,125.34375 C 193.02609,125.33879 193.03641,125.31746 193.03125,125.3125 C 192.64367,121.49702 189.4129,118.5 185.5,118.5 C 184.97812,118.5 184.49222,118.55543 184,118.65625 C 183.9921,118.65186 183.97665,118.66063 183.96875,118.65625 C 179.01742,115.90993 173.53737,114.10035 167.90625,113.4375 C 166.5278,111.57815 164.33292,110.375 161.84375,110.375 z"
         style="fill:#43cc00;fill-opacity:1;fill-rule:evenodd;stroke:#98fc66;stroke-width:3.22715092;stroke-linecap:round;stroke-linejoin:round;stroke-miterlimit:4;stroke-dasharray:none;stroke-opacity:1" /></g><g
       id="g2454"
       transform="matrix(1.5493549,0,0,0.5698434,220.86679,-71.821552)"><path
         d="M 119.465,658.318 C 119.199,663.288 119.609,664.849 118.828,665.019 C 115.031,665.848 111.062,670.978 110.273,664.637 C 109.34,657.128 109.066,660.038 110.414,659.465 C 113.09,658.328 116.402,657.978 119.465,658.318 z"
         style="fill:#3ebd00;fill-opacity:1;fill-rule:evenodd;stroke:#98fc66;stroke-width:2.66064525;stroke-linecap:round;stroke-linejoin:round;stroke-miterlimit:4;stroke-dasharray:none;stroke-opacity:1"
         id="path2456" /></g><g
       id="g2566"
       transform="matrix(1.5493549,0,0,0.5698434,220.86679,-71.821552)"><path
         d="M 119.371,710.455 C 122.047,714.948 122.434,715.585 119.371,717.539 C 116.305,719.504 112.93,719.504 109.867,717.539 C 106.805,715.585 106.961,713.747 109.867,710.455 C 114.086,705.676 116.918,706.345 119.371,710.455 z"
         style="fill:#3ebd00;fill-opacity:1;fill-rule:evenodd;stroke:#98fc66;stroke-width:2.66064525;stroke-linecap:round;stroke-linejoin:round;stroke-miterlimit:4;stroke-dasharray:none;stroke-opacity:1"
         id="path2568" /></g></g><text
     xml:space="preserve"
     style="font-size:36px;font-style:normal;font-variant:normal;font-weight:bold;font-stretch:normal;text-align:start;line-height:100%;writing-mode:lr-tb;text-anchor:start;fill:#000000;fill-opacity:1;stroke:none;stroke-width:1px;stroke-linecap:butt;stroke-linejoin:miter;stroke-opacity:1;display:inline;enable-background:new;font-family:Bitstream Vera Sans Mono;-inkscape-font-specification:Bitstream Vera Sans Mono Bold"
     x="172.60059"
     y="29.716827"
     id="text5738"
     sodipodi:linespacing="100%"><tspan
       sodipodi:role="line"
       id="tspan5740"
       x="172.60059"
       y="29.716827">(((((((.......)))))))</tspan></text>
<text
     xml:space="preserve"
     style="font-size:22px;font-style:normal;font-variant:normal;font-weight:normal;font-stretch:normal;text-align:start;line-height:100%;writing-mode:lr-tb;text-anchor:start;fill:#000000;fill-opacity:1;stroke:none;stroke-width:1px;stroke-linecap:butt;stroke-linejoin:miter;stroke-opacity:1;display:inline;enable-background:new;font-family:Bitstream Vera Serif;-inkscape-font-specification:Bitstream Vera Serif"
     x="9.6005859"
     y="24.285156"
     id="text3233"
     sodipodi:linespacing="100%"><tspan
       sodipodi:role="line"
       id="tspan3237"
       x="9.6005859"
       y="24.285156">Vienna string:</tspan></text>
<text
     xml:space="preserve"
     style="font-size:22px;font-style:normal;font-variant:normal;font-weight:normal;font-stretch:normal;text-align:start;line-height:100%;writing-mode:lr-tb;text-anchor:start;fill:#000000;fill-opacity:1;stroke:none;stroke-width:1px;stroke-linecap:butt;stroke-linejoin:miter;stroke-opacity:1;display:inline;enable-background:new;font-family:Bitstream Vera Serif;-inkscape-font-specification:Bitstream Vera Serif"
     x="8.171875"
     y="230.38232"
     id="text3239"
     sodipodi:linespacing="100%"><tspan
       sodipodi:role="line"
       id="tspan3243"
       x="8.171875"
       y="230.38232">Base pair graph:</tspan></text>
<path
     style="fill:url(#linearGradient4828);fill-opacity:1;fill-rule:evenodd;stroke:#ff9400;stroke-width:1.5;stroke-linecap:round;stroke-linejoin:round;stroke-miterlimit:4;stroke-dasharray:none;stroke-opacity:0.79607843"
     d="M 400,35 C 400,35 396.16726,37.374711 386.97487,48.566514 C 386.97487,48.566514 391.25736,47.367393 395.5,48.566514 C 395.5,48.566514 396.59619,54.623809 392,70.612099 C 392,70.612099 400.6967,65.747033 406,71.742641 C 406,71.742641 406.68198,53.528565 403.5,49.131785 C 403.5,49.131785 407.25736,47.932664 411.5,49.131785 C 411.5,49.131785 408.48528,41.395316 400,35 z"
     id="path3393"
     sodipodi:nodetypes="cccccccc" /><path
     style="fill:url(#linearGradient4950);fill-opacity:1;fill-rule:evenodd;stroke:#ff9400;stroke-width:1.49999988;stroke-linecap:round;stroke-linejoin:round;stroke-miterlimit:4;stroke-dasharray:none;stroke-opacity:0.79607843"
     d="M 425.27359,34.066536 C 425.27359,34.066536 422.72113,37.641012 419.16938,51.260147 C 419.16938,51.260147 422.70135,48.601362 427.31663,48.1589 C 425.54462,48.380401 432.72739,58.449268 431.67221,77.222957 C 431.67221,77.222957 438.50591,75.646552 442.13499,84.171631 C 442.60427,84.171631 439.17406,48.646798 435.22634,45.76766 C 435.22634,45.76766 438.25646,43.299905 442.87173,42.857442 C 442.87173,42.857442 436.37315,36.851299 425.27359,34.066536 z"
     id="path4806"
     sodipodi:nodetypes="cccccccc" /><path
     style="fill:url(#linearGradient4962);fill-opacity:1;fill-rule:evenodd;stroke:#ff9400;stroke-width:1.49999988;stroke-linecap:round;stroke-linejoin:round;stroke-miterlimit:4;stroke-dasharray:none;stroke-opacity:0.79607843"
     d="M 375.21026,33.203459 C 375.21026,33.203459 376.70206,38.545702 380.25381,52.164837 C 380.07524,51.926747 374.39275,46.400595 372.10656,49.06359 C 370.47872,48.60512 367.42643,59.500083 369.51875,78.4812 C 369.51875,78.4812 360.91728,76.551242 357.2882,85.076321 C 356.81892,85.076321 360.24913,49.551488 364.19685,46.67235 C 364.53349,46.504031 364.19229,42.691814 356.55146,43.762132 C 356.55146,43.762132 364.1107,35.988222 375.21026,33.203459 z"
     id="path4952"
     sodipodi:nodetypes="cccccccc" /><path
     style="fill:url(#linearGradient4974);fill-opacity:1;fill-rule:evenodd;stroke:#ff9400;stroke-width:1.5;stroke-linecap:round;stroke-linejoin:round;stroke-miterlimit:4;stroke-dasharray:none;stroke-opacity:0.79607843"
     d="M 571.23029,41.373623 C 571.23029,41.373623 568.43867,44.532258 557.0087,52.745163 C 557.29816,52.675963 563.43225,52.051803 563.49116,55.561035 C 564.26391,55.904359 547.41158,109.39432 516.62889,163.75025 C 485.8462,218.10618 441.13316,273.32807 434.26778,279.9637 C 434.26778,279.9637 437.87699,288.21365 435.22605,297.0917 C 435.40662,297.24153 491.59661,226.82484 525.6712,167.79943 C 559.74579,108.77402 571.70498,61.139909 571.10521,58.771628 C 570.95362,58.427129 572.23631,53.943468 577.43303,59.646277 C 577.43303,59.646277 577.99396,50.604432 571.23029,41.373623 z"
     id="path4964"
     sodipodi:nodetypes="cccsccsccc" /><path
     style="fill:url(#linearGradient4986);fill-opacity:1;fill-rule:evenodd;stroke:#ff9400;stroke-width:1.5;stroke-linecap:round;stroke-linejoin:round;stroke-miterlimit:4;stroke-dasharray:none;stroke-opacity:0.79607843"
     d="M 545.85895,37.169975 C 545.85895,37.169975 539.53179,40.682158 528.10182,48.895068 C 528.39128,48.825868 534.87893,48.908815 536.35205,51.710938 C 537.1248,52.054258 520.27247,105.54423 489.48978,159.90016 C 458.70709,214.25609 437.32857,243.31503 430.46319,249.95066 C 430.46319,249.95066 435.48662,258.90772 432.83568,267.78577 C 433.01625,267.9356 464.4575,222.97475 498.53209,163.94934 C 532.60668,104.92393 544.56587,57.289808 543.9661,54.921528 C 543.81451,54.577028 544.03654,52.214691 550.64747,56.856841 C 550.21021,56.856841 549.6653,46.400785 545.85895,37.169975 z"
     id="path4976"
     sodipodi:nodetypes="ccccccsccc" /><path
     style="fill:url(#linearGradient5010);fill-opacity:1;fill-rule:evenodd;stroke:#ff9400;stroke-width:1.5;stroke-linecap:round;stroke-linejoin:round;stroke-miterlimit:4;stroke-dasharray:none;stroke-opacity:0.79607843"
     d="M 593.78847,43.456385 C 593.78847,43.456385 591.31301,46.868454 580.72438,56.140822 C 581.00585,56.04415 587.05168,54.833933 587.44725,58.321297 C 554.89008,167.04759 507.55484,232.83513 434.36598,308.09415 C 435.32902,307.13111 440.72407,311.98599 434.96429,325.05103 C 505.08761,254.43697 570.13483,162.64817 595.33437,60.786026 C 595.15041,60.457672 595.99668,55.871572 601.71694,61.049093 C 601.71694,61.049093 601.40715,51.995164 593.78847,43.456385 z"
     id="path5000"
     sodipodi:nodetypes="cccccccc" /><path
     style="fill:url(#linearGradient5038);fill-opacity:1;fill-rule:evenodd;stroke:#ff9400;stroke-width:1.5;stroke-linecap:round;stroke-linejoin:round;stroke-miterlimit:4;stroke-dasharray:none;stroke-opacity:0.79607843"
     d="M 229.35395,41.535967 C 229.35395,41.535967 232.0588,44.769204 243.26167,53.289292 C 242.97419,53.212262 236.85931,52.421853 236.70518,55.928193 C 235.92339,56.250418 251.31781,110.17805 280.61393,165.3494 C 309.91007,220.52074 358.60793,275.4358 365.29068,282.25531 C 365.29068,282.25531 361.95891,290.90427 364.36792,299.851 C 364.18335,299.99587 303.92516,229.08013 271.46506,169.15168 C 239.00497,109.22323 228.34297,61.282089 229.0068,58.930958 C 229.16769,58.5907 228.00714,54.07388 222.65756,59.633549 C 222.65756,59.633549 222.34224,50.57981 229.35395,41.535967 z"
     id="path5012"
     sodipodi:nodetypes="cccsccsccc" /><path
     style="fill:url(#linearGradient5046);fill-opacity:1;fill-rule:evenodd;stroke:#ff9400;stroke-width:1.5;stroke-linecap:round;stroke-linejoin:round;stroke-miterlimit:4;stroke-dasharray:none;stroke-opacity:0.79607843"
     d="M 251.23112,39.059473 C 251.23112,39.059473 257.55827,42.571656 268.98825,50.784566 C 268.69879,50.715366 262.21113,50.798313 260.73802,53.600436 C 259.96526,53.943756 276.81759,107.43373 307.60028,161.78966 C 338.38297,216.14559 359.76149,245.20453 366.62688,251.84016 C 366.62688,251.84016 363.60344,262.29722 366.25438,271.17527 C 366.07381,271.3251 332.63256,224.86425 298.55797,165.83884 C 264.48338,106.81343 252.52419,59.179305 253.12397,56.811025 C 253.27556,56.466526 253.05353,54.104189 246.44259,58.746338 C 246.87986,58.746338 247.42476,48.290283 251.23112,39.059473 z"
     id="path5014"
     sodipodi:nodetypes="ccccccsccc" /><path
     style="fill:url(#linearGradient5030);fill-opacity:1;fill-rule:evenodd;stroke:#ff9400;stroke-width:1.5;stroke-linecap:round;stroke-linejoin:round;stroke-miterlimit:4;stroke-dasharray:none;stroke-opacity:0.79607843"
     d="M 206.17277,41.838569 C 206.17277,41.838569 208.57853,45.300143 218.97692,54.785358 C 218.69746,54.682997 212.67743,53.35041 212.21121,56.829034 C 242.55653,166.19328 293.54775,233.92732 365.19518,310.65525 C 364.25187,309.67288 358.25946,314.41734 363.75308,327.59651 C 295.07636,255.57476 227.40414,161.48557 204.27572,59.133291 C 204.46631,58.808737 203.71323,54.206416 197.88913,59.266856 C 197.88913,59.266856 198.38249,50.221072 206.17277,41.838569 z"
     id="path5016"
     sodipodi:nodetypes="cccccccc" /></svg>